<svg xmlns="http://www.w3.org/2000/svg" xmlns:xlink="http://www.w3.org/1999/xlink" width="53.236" height="53.236" viewBox="0 0 53.236 53.236"><defs><style>.a{fill:url(#a);}</style><linearGradient id="a" x1="0.5" x2="0.5" y2="1" gradientUnits="objectBoundingBox"><stop offset="0" stop-color="#ffb9a4"/><stop offset="1" stop-color="#f71cff"/></linearGradient></defs><g transform="translate(-1590.308 -1090.311)"><path class="a" d="M1616.929,1090.311a26.651,26.651,0,0,0-26.621,26.621h2.954a23.7,23.7,0,0,1,16.179-22.446,8.764,8.764,0,0,0-1.34,4.653c0,.22.017.436.033.653a19.286,19.286,0,0,0-10.476,17.141l2.976-.782c0-5.907,3.178-10.525,8.245-13.4a8.867,8.867,0,0,0,2.821,3.49,11.922,11.922,0,0,0-6.693,10.7h2.954a8.976,8.976,0,0,1,8.966-8.966,8.827,8.827,0,1,0,0-17.655Zm0,14.7a5.874,5.874,0,1,1,5.874-5.874A5.881,5.881,0,0,1,1616.929,1105.012Z" transform="translate(0)"/><path class="a" d="M1673.027,2015.745a26.651,26.651,0,0,0,36.364,9.744l-1.477-2.558a23.7,23.7,0,0,1-27.529-2.789,8.764,8.764,0,0,0,4.7-1.166c.191-.11.369-.233.549-.355a19.287,19.287,0,0,0,20.082.5l-2.04-2.253c-5.116,2.954-10.829,2.577-15.856-.372a8.868,8.868,0,0,0,1.611-4.189,11.922,11.922,0,0,0,12.609.448l-1.477-2.558a8.976,8.976,0,0,1-12.248-3.282,8.827,8.827,0,1,0-15.289,8.827Zm12.731-7.351a5.874,5.874,0,1,1-8.024-2.15A5.881,5.881,0,0,1,1685.759,2008.395Z" transform="translate(-79.152 -885.504)"/><path class="a" d="M2671.869,1248.551a26.651,26.651,0,0,0-9.744-36.365l-1.477,2.558A23.7,23.7,0,0,1,2672,1239.979a8.757,8.757,0,0,0-3.359-3.486c-.191-.11-.386-.2-.582-.3a19.286,19.286,0,0,0-9.606-17.643l-.807,2.974c5.115,2.953,7.522,8.01,7.482,13.838a8.868,8.868,0,0,0-4.433.7,11.923,11.923,0,0,0-5.917-11.144l-1.476,2.558a8.976,8.976,0,0,1,3.281,12.248,8.827,8.827,0,1,0,15.289,8.827Zm-12.731-7.351a5.874,5.874,0,1,1,2.15,8.024A5.88,5.88,0,0,1,2659.138,1241.2Z" transform="translate(-1031.887 -118.309)"/></g></svg>